PathFileType	4	(X/Y/Z)	C:\Users\Basilio\Documents\Thesis Gigler\squatting_fais\c3dfiles\039\SLS_pre_front2\markers_experimental.trc
DataRate	CameraRate	NumFrames	NumMarkers	Units	OrigDataRate	OrigDataStartFrame	OrigNumFrames
200.000000	200.000000	4	62	mm	200.000000	262	2102
Frame#	Time	FHD			LBHD			RBHD			C7			T10			CLAV			LSHO			LUUPA			LMUPA			LDUPA			LLEP			LMEP			LRAD			LUL			LRFIN			RSHO			RUPA1			RMUPA			RDUPA			RLEP			RMEP			RRAD			RUL			RUFIN			LASI			RASI			USACR			LSACR			RSACR			LTHI1			LTHI2			LTHI3			LTHI4			LLFC			LMFC			LTIB1			LTIB2			LTIB3			LTIB4			LLMAL			LMMAL			LHEE			LMT1			LMT2			LMT5			RTHI			RTHI2			RTHI3			RTHI4			RLFC			RMFC			RTIB1			RTIB2			RTIB3			RTIB4			RLMAL			RMMAL			RHEE			RMT1			RMT2			RMT5			*61			
		X1	Y1	Z1	X2	Y2	Z2	X3	Y3	Z3	X4	Y4	Z4	X5	Y5	Z5	X6	Y6	Z6	X7	Y7	Z7	X8	Y8	Z8	X9	Y9	Z9	X10	Y10	Z10	X11	Y11	Z11	X12	Y12	Z12	X13	Y13	Z13	X14	Y14	Z14	X15	Y15	Z15	X16	Y16	Z16	X17	Y17	Z17	X18	Y18	Z18	X19	Y19	Z19	X20	Y20	Z20	X21	Y21	Z21	X22	Y22	Z22	X23	Y23	Z23	X24	Y24	Z24	X25	Y25	Z25	X26	Y26	Z26	X27	Y27	Z27	X28	Y28	Z28	X29	Y29	Z29	X30	Y30	Z30	X31	Y31	Z31	X32	Y32	Z32	X33	Y33	Z33	X34	Y34	Z34	X35	Y35	Z35	X36	Y36	Z36	X37	Y37	Z37	X38	Y38	Z38	X39	Y39	Z39	X40	Y40	Z40	X41	Y41	Z41	X42	Y42	Z42	X43	Y43	Z43	X44	Y44	Z44	X45	Y45	Z45	X46	Y46	Z46	X47	Y47	Z47	X48	Y48	Z48	X49	Y49	Z49	X50	Y50	Z50	X51	Y51	Z51	X52	Y52	Z52	X53	Y53	Z53	X54	Y54	Z54	X55	Y55	Z55	X56	Y56	Z56	X57	Y57	Z57	X58	Y58	Z58	X59	Y59	Z59	X60	Y60	Z60	X61	Y61	Z61	X62	Y62	Z62	

263	1.31	-294.6118469238282	1804.492065429688	-739.1346435546876	-447.5355834960939	1768.7626953125	-863.0178833007815	-425.0315856933595	1775.8984375	-723.2404174804689	-478.756317138672	1593.198608398438	-808.4915161132815	-450.4336242675782	1285.424926757813	-829.2520751953127	nan	nan	nan	-398.2173461914064	1607.253173828125	-970.2993774414065	-224.4297332763672	1580.179565429688	-1070.007568359375	-205.5118408203126	1615.313720703125	-1039.7275390625	-156.1951751708985	1595.691040039063	-1067.623168945313	-90.62039184570314	1610.263671875	-1060.56982421875	-81.31773376464845	1540.9375	-1025.534057617188	179.5181732177735	1666.816162109375	-960.2066040039065	182.3950805664063	1673.052124023438	-1036.029907226563	256.8965759277344	1707.775634765625	-950.5157470703127	-376.4914550781251	1601.653442382813	-644.4808959960939	-206.7771148681641	1550.530395507813	-551.5046386718751	-183.4553527832032	1586.644165039063	-578.4645996093751	-137.9856567382813	1553.300537109375	-555.9030761718751	-77.45886993408205	1571.945922851563	-566.7953491210939	-67.75998687744142	1504.902221679688	-607.0383911132814	205.3871307373047	1639.168212890625	-651.1195068359376	206.0239868164063	1628.356811523438	-575.6921997070314	290.2444152832032	1677.413208007813	-643.0944824218751	-257.4716186523438	1122.59326171875	-945.6557617187502	-258.4793701171876	1103.581665039063	-719.9002075195314	-444.8630371093751	1158.536376953125	-830.436462402344	-445.1831054687501	1127.799072265625	-859.965515136719	-446.9044799804689	1124.854370117188	-801.1702880859377	-317.9892883300782	836.7952270507815	-1021.499572753906	-285.1979370117188	758.7545166015626	-1020.562255859375	-238.6821746826172	762.0712280273439	-1010.504028320313	-313.1603393554688	705.6119384765626	-1012.385864257813	-318.8500061035157	583.2374267578126	-1010.541931152344	-290.9916687011719	556.0114135742189	-897.2227172851565	-278.5694274902344	429.2832641601564	-990.4326171875002	-348.4029235839844	397.5658569335939	-1034.071533203125	-309.4628601074219	386.8856506347657	-1016.274475097656	-318.4770202636719	307.1927185058594	-979.4151611328127	-400.4013061523439	150.7093200683594	-1011.841979980469	-382.7897033691407	146.7852783203125	-927.979919433594	-473.5947265625001	118.1488876342774	-974.498718261719	-248.4836120605469	62.0401954650879	-954.3618164062502	-255.6291046142579	61.07033538818361	-998.1374511718752	-303.8893127441407	48.20023345947267	-1048.856689453125	-301.1779174804688	827.8225097656252	-664.4121704101564	-259.2173461914063	775.9843750000002	-662.4066772460939	-227.5370483398438	781.2661132812502	-668.3308105468751	-282.7597045898438	694.2461547851564	-673.9426269531251	-313.5205688476563	554.8338012695314	-699.0500488281251	-275.6234436035157	545.0959472656251	-812.9913330078127	-286.2009277343751	340.7142028808594	-713.1639404296876	-374.8141174316407	280.5666198730469	-705.6555786132814	-329.5348205566407	268.5347290039063	-704.3674926757814	-314.7180175781251	219.496078491211	-737.4701538085939	-387.0117492675782	129.9229736328125	-715.3271484375001	-355.4602661132813	144.067138671875	-798.992126464844	-454.8306579589845	109.1829681396485	-769.8745117187502	-231.4237518310547	55.81959152221681	-775.7329101562502	-236.2165222167969	56.88269424438478	-729.9181518554689	-293.0437316894532	39.79029083251954	-679.1788940429689	nan	nan	nan	
264	1.315	-294.6369323730469	1804.404418945313	-738.8477783203126	-448.6792907714845	1768.939086914063	-862.7349853515627	-425.043182373047	1775.931030273438	-723.0149536132814	-478.9259033203126	1593.164916992188	-808.0444946289065	-450.5081787109376	1285.401123046875	-828.8624267578127	nan	nan	nan	-398.4641418457032	1607.221435546875	-969.8306274414065	-224.5885009765626	1580.119995117188	-1069.64013671875	-205.5365905761719	1615.305297851563	-1039.389892578125	-156.3521728515625	1595.662963867188	-1067.298706054688	-90.79438781738283	1610.345092773438	-1060.231567382813	-81.44007110595705	1540.936889648438	-1025.237548828125	179.4104156494141	1666.831176757813	-959.924987792969	182.232177734375	1673.071411132813	-1035.787231445313	256.8099365234376	1707.763793945313	-950.2390136718752	-376.5718688964844	1601.7275390625	-644.1683959960939	-206.7958679199219	1550.401611328125	-551.1894531250001	-183.4598846435547	1586.591674804688	-578.1773681640626	-138.1329345703125	1553.197265625	-555.4868164062501	-77.54808807373048	1571.960205078125	-566.5605468750001	-67.87790679931642	1504.916625976563	-606.7012329101564	205.2319641113282	1639.2099609375	-650.7838134765626	205.9170989990235	1628.36572265625	-575.3214721679689	290.1984252929688	1677.390991210938	-642.7672729492189	-257.6143188476563	1122.615600585938	-945.2719726562502	-258.5433959960938	1103.499389648438	-719.5252685546876	-444.9824523925782	1158.30517578125	-830.1076660156252	-445.3120727539064	1127.791137695313	-859.5512695312502	-446.877655029297	1124.8759765625	-800.645202636719	-318.0547790527344	836.7676391601565	-1021.2080078125	-285.2610473632813	758.7702636718751	-1020.360595703125	-238.8403015136719	762.1185913085939	-1010.262756347656	-313.2239074707032	705.6062622070314	-1012.159423828125	-318.9116210937501	583.2472534179689	-1010.370300292969	-291.0505981445313	556.0429687500001	-897.0264892578127	-278.5498962402344	429.2789611816407	-990.368347167969	-348.4285278320313	397.5404052734376	-1033.869140625	-309.4815673828126	386.8908996582032	-1016.170959472656	-318.4743957519532	307.1921386718751	-979.334411621094	-400.3511962890626	150.7445373535157	-1011.825866699219	-382.7321472167969	146.76806640625	-927.9645996093752	-473.6930236816407	117.9075241088867	-974.5129394531252	-248.476791381836	62.03332901000978	-954.3870239257815	-255.6448516845704	61.08545303344728	-998.151306152344	-303.8986511230469	48.20864486694337	-1048.861694335938	-301.2353820800782	827.692565917969	-664.1291503906251	-259.1454162597657	775.821716308594	-662.2666015625001	-227.4811248779297	781.2150878906252	-668.1580810546876	-282.6730957031251	694.2047729492189	-673.7376708984376	-313.4005126953126	554.6537475585939	-698.8889770507814	-275.6190490722657	545.0734863281251	-812.865661621094	-286.1548767089844	340.6825561523438	-713.2340698242189	-374.7122192382813	280.5056457519532	-705.6598510742189	-329.3425598144532	268.4487609863282	-704.4157104492189	-314.5666503906251	219.8076171875001	-737.3589477539064	-386.9771728515626	129.9175109863282	-715.3233032226564	-355.4577636718751	144.3164978027344	-799.0178222656252	-454.814666748047	109.175048828125	-769.9063110351565	-231.3667907714844	55.71462249755861	-775.701843261719	-236.2021484375001	56.93826293945314	-729.9954833984376	-293.0069580078126	39.81341171264649	-679.1710205078126	nan	nan	nan	
265	1.32	-294.5478820800782	1804.2978515625	-738.3908691406251	-448.7044067382814	1768.914428710938	-862.3073730468752	-425.0373535156251	1775.884765625	-722.7039184570314	-479.0580444335939	1593.241088867188	-807.6672973632815	-450.6856994628907	1285.362548828125	-828.4003906250002	nan	nan	nan	-398.7216796875001	1607.2216796875	-969.3948364257815	-224.6897277832032	1580.147827148438	-1069.277587890625	-205.7091369628907	1615.383422851563	-1039.07470703125	-156.486572265625	1595.607666015625	-1066.949584960938	-90.93989562988283	1610.264526367188	-1059.922973632813	-81.51081848144533	1540.948852539063	-1024.953125	179.2516174316407	1666.85693359375	-959.6082153320315	182.0719604492188	1673.093994140625	-1035.538452148438	256.6930847167969	1707.735717773438	-949.9395141601565	-376.6410827636719	1601.686645507813	-643.8286132812501	-206.8350372314454	1550.457397460938	-550.8286743164064	-183.2576751708985	1586.853759765625	-577.6027221679689	-138.1962585449219	1553.227661132813	-555.1142578125001	-77.57899475097658	1571.999755859375	-566.2820434570314	-67.98152160644533	1504.959716796875	-606.3182373046876	204.6478118896485	1638.648071289063	-650.5287475585939	205.8638000488282	1628.308715820313	-575.0250854492189	290.0951232910157	1677.4326171875	-642.4347534179689	-257.7388610839844	1122.70458984375	-944.9265136718752	-258.7037658691407	1103.463012695313	-719.1149291992189	-445.1659240722657	1158.304321289063	-829.6860351562502	-445.5299682617189	1127.768432617188	-859.2467041015627	-447.1842651367189	1124.917236328125	-800.3286743164065	-318.1921691894532	836.7798461914065	-1020.980834960938	-285.3018493652344	758.7184448242189	-1020.107116699219	-238.9553985595704	762.1542358398439	-1010.028564453125	-313.1615600585938	705.6188964843751	-1011.886901855469	-318.9821777343751	583.3005981445314	-1010.133056640625	-291.1980895996094	555.9966430664064	-896.8325195312502	-278.5944213867188	429.248992919922	-990.2299804687502	-348.4509887695313	397.520965576172	-1033.747802734375	-309.5663146972657	386.944305419922	-1016.044189453125	-318.4617309570313	307.2044372558594	-979.2547607421877	-400.407928466797	150.7658081054688	-1011.819274902344	-382.7536621093751	146.7586975097657	-927.9785766601565	-473.6939086914064	117.9094314575196	-974.498718261719	-248.4844512939454	62.00546264648439	-954.415954589844	-255.6145019531251	61.106502532959	-998.1489868164065	-303.9143676757813	48.16890335083009	-1048.83251953125	-301.2135009765626	827.6142578125002	-663.8845825195314	-259.1426086425782	775.7950439453127	-662.0226440429689	-227.4667663574219	781.0975341796877	-668.0004882812501	-282.6050109863282	694.1423950195314	-673.5583496093751	-313.2736511230469	554.5926513671876	-698.7684936523439	-275.6723937988282	545.1337890625001	-812.8094482421877	-286.0501403808594	340.6524353027344	-713.2336425781251	-374.6565551757813	280.5165405273438	-705.6298828125001	-329.2985229492188	268.4049682617188	-704.4661254882814	-314.5564270019532	219.7330627441407	-737.4863891601564	-386.9395446777345	129.9305725097657	-715.4217529296876	-355.5277709960938	144.3123779296875	-799.1312255859377	-454.8112182617189	109.1727066040039	-769.8946533203127	-231.5593566894532	56.04858016967775	-775.753112792969	-236.1883544921876	56.91681289672853	-730.0106201171876	-292.9875793457032	39.83909988403321	-679.2291259765626	nan	nan	nan	
266	1.325	-294.6789855957032	1804.0888671875	-737.9694213867189	-448.933807373047	1768.9326171875	-861.7331542968752	-425.0472717285157	1775.946411132813	-722.3551635742189	-479.150360107422	1593.26953125	-807.365661621094	-450.6790771484376	1285.376220703125	-828.008728027344	nan	nan	nan	-398.8805236816407	1607.25927734375	-969.0134887695315	-224.8299713134766	1580.13671875	-1068.892700195313	-206.0402374267579	1615.010009765625	-1038.484619140625	-156.6253814697266	1595.64453125	-1066.60009765625	-91.07540130615236	1610.304931640625	-1059.63232421875	-81.63339233398439	1541.004760742188	-1024.645141601563	179.1761932373047	1666.83984375	-959.3569946289065	181.880844116211	1673.08154296875	-1035.222412109375	256.5825195312501	1707.8232421875	-949.7208251953127	-376.6593933105469	1601.649536132813	-643.4622192382814	-206.8555145263672	1550.53515625	-550.3971557617189	-183.3734283447266	1586.786865234375	-577.1103515625001	-138.3205718994141	1553.241577148438	-554.7192993164064	-77.62930297851564	1571.948364257813	-565.9763793945314	-68.13170623779298	1505.19091796875	-605.8577880859376	204.4841461181641	1638.641967773438	-650.2496948242189	205.7563629150391	1628.373901367188	-574.7534790039064	290.0147399902344	1677.455200195313	-642.1530151367189	-258.1559143066407	1122.586181640625	-944.4030761718752	-258.9509887695313	1103.368041992188	-718.6964111328126	-445.4241638183595	1158.624145507813	-829.255554199219	-445.6023864746095	1127.725341796875	-858.8820800781252	-447.6582641601564	1124.97509765625	-799.9598388671877	-318.2369995117188	836.8157348632815	-1020.682312011719	-285.3795166015626	758.7558593750001	-1019.822509765625	-238.9649658203126	762.2004394531251	-1009.734558105469	-313.2374267578126	705.6075439453126	-1011.6357421875	-319.0056762695313	583.2897949218751	-1009.909240722656	-291.1920471191407	555.9962158203126	-896.7141723632815	-278.5375061035157	429.3085021972657	-990.0679931640627	-348.4580078125001	397.5067749023439	-1033.637329101563	-309.1536560058594	387.3840332031251	-1015.731872558594	-318.4747619628907	307.2539978027344	-979.1470336914065	-400.3957519531251	150.7862854003907	-1011.819885253906	-382.7623291015626	146.730712890625	-927.9843750000002	-473.7519531250001	117.9489440917969	-974.5234985351565	-248.4713592529297	62.01832580566408	-954.3933715820315	-255.6403045654297	61.08619689941408	-998.1512451171877	-303.8439941406251	48.19857025146486	-1048.840576171875	-301.2276306152344	827.5518798828127	-663.6450195312501	-259.0928039550782	775.6699218750002	-661.8681030273439	-227.4140625000001	781.0364990234377	-667.8731689453126	-282.5335083007813	694.0327148437501	-673.3615112304689	-313.1752014160157	554.5120239257814	-698.6162719726564	-275.7066955566407	545.1602172851564	-812.724304199219	-285.9178771972657	340.6004333496094	-713.3670043945314	-374.5787048339844	280.4260559082032	-705.6236572265626	-329.2214965820313	268.3670349121094	-704.5360717773439	-314.5114746093751	219.7584838867188	-737.5952148437501	-386.9121093750001	129.9386291503907	-715.4601440429689	-355.5626220703126	144.3246459960938	-799.2503662109377	-454.8311157226564	109.1819381713867	-769.9788818359377	-231.3496551513672	55.62590789794923	-775.7456665039065	-236.1930236816407	56.90943145751955	-730.1035766601564	-292.9900817871094	39.90346908569337	-679.1992187500001	nan	nan	nan	
